<?xml version="1.0" encoding="UTF-8"?>
<svg version="1.1" baseProfile="tiny" id="Capa_1" xmlns="http://www.w3.org/2000/svg" xmlns:xlink="http://www.w3.org/1999/xlink" x="0px" y="0px" viewBox="0 0 700 500" overflow="visible" xml:space="preserve">
<g>
	<path fill="#ff5C00" d="M255.63,280.76c23.99,0,47.98,0.01,71.98,0c13.72-0.01,19.54-5.7,20.49-19.42   c1.78-25.82-3.6-49.78-18.34-71.27c-15.57-22.69-36.97-37.6-63.89-42.48c-49.31-8.95-91.85,4-124.91,43   c-11.9,14.04-19.18,30.58-23.69,48.32c-0.64,2.52-1.51,3.17-3.9,3.16c-22.99-0.08-45.99,0.09-68.98-0.14   c-12.38-0.12-19.05-8.99-15.45-20.86c6.48-21.32,17.29-40.54,30.25-58.52c29.24-40.57,67.13-71.23,110.57-95.34   c42.83-23.77,88.58-39.34,136.69-48.24c31.51-5.83,63.28-8.78,95.29-7.75c62.62,2.02,122.37,15.17,176.76,47.74   c35.98,21.55,65.24,49.66,83.72,87.9c8.73,18.06,14.25,37.06,15.85,57.16c0.42,5.31,0.96,10.61,0.81,15.93   c-0.39,13.94-8.35,21.98-22.25,22.02c-34.16,0.1-68.31,0.03-102.47-0.03c-7.33-0.01-14.57-1.1-21.61-3.12   c-14.53-4.17-21.92-13.92-22.61-29.15c-0.39-8.52,0.45-16.97,1.24-25.41c0.59-6.26,1.93-7.24,8.29-7.26   c9-0.03,17.99,0.03,26.99-0.02c7.77-0.04,12.73-4.67,13.44-12.42c0.43-4.63,0.84-9.27,1.3-13.9c0.79-7.95-3.39-12.6-11.5-12.64   c-9.16-0.05-18.33,0.02-27.49-0.03c-5.14-0.03-6.02-1.11-5.51-6.28c0.46-4.63,1.07-9.26,1.26-13.91   c0.28-7.12-4.02-11.53-11.22-11.71c-4.66-0.12-9.33-0.05-14-0.02c-9.09,0.06-13.97,4.89-14.78,14   c-1.97,22.19-4.08,44.36-6.21,66.53c-1.38,14.29-1.66,28.5,1.06,42.71c5.26,27.42,22.68,42.44,48.93,48.61   c12.69,2.99,25.62,3.82,38.6,3.86c25.49,0.07,50.98,0.03,76.48,0.02c3.67,0,7.32,0.08,10.87,1.18c7.63,2.37,11.32,8.71,9.81,16.62   c-2.01,10.52-7.19,19.55-13.01,28.29c-26.3,39.49-60.84,70.22-101.03,94.93c-46.58,28.63-97.07,46.9-150.65,57.11   c-34.47,6.57-69.26,9.38-104.26,7.76c-59.83-2.77-116.92-16.13-168.88-47.11c-36.15-21.55-65.64-49.8-84.19-88.2   c-7.59-15.72-13.39-32.13-14.52-49.8c-0.18-2.81-0.1-5.68,0.24-8.48c0.95-7.83,5.83-12.24,13.72-12.27   c24.99-0.07,49.98-0.01,74.98-0.07c2.48-0.01,3.84,0.31,4.17,3.38c5,47.09,36.12,82.52,82.22,93.85   c6.29,1.55,12.62,2.82,19.13,3.07c6.67,0.26,11.65-3.5,12.67-10.01c0.82-5.25,1.48-10.54,1.87-15.84   c0.66-8.89-3.2-13.19-12.07-14.26c-17.23-2.08-32.22-8.75-44.12-21.74c-10.25-11.19-15.8-24.63-17.48-39.41   c-2.63-23.23,1.83-44.99,16.05-64.15c26.39-35.58,79.5-42.82,111.91-15.39c10.72,9.07,17.71,20.56,21.65,33.96   c1.59,5.41,1.12,6-4.64,6c-29.16,0.02-58.32,0.02-87.47,0c-4.33,0-8.65-0.03-12.95,0.64c-14.34,2.25-24.41,10.04-29.63,23.54   c-3.6,9.32,0.82,15.26,10.93,15.29C206.64,280.8,231.14,280.76,255.63,280.76z M393.9,105.89c-2.5,0-4.99-0.04-7.49,0.01   c-7.32,0.14-12.46,4.38-13.23,11.57c-2.19,20.47-4.13,40.96-6.22,61.44c-1.5,14.7-3.11,29.38-4.59,44.08   c-1.54,15.36-3.17,30.72-4.38,46.11c-0.55,7.05,3.62,11.39,10.57,11.71c5.31,0.24,10.66,0.27,15.97-0.01   c6.84-0.37,11.8-5.04,12.48-11.37c1.64-15.18,3.26-30.37,4.83-45.56c3.65-35.34,7.28-70.67,10.91-106.01   c0.67-6.49-3.85-11.73-10.38-11.94C399.56,105.82,396.73,105.9,393.9,105.89z M430.11,280.87c2.66,0,5.33,0.12,7.99-0.02   c6.79-0.38,12.09-4.83,12.79-11.09c1.47-13.2,2.73-26.42,4.05-39.63c1.83-18.17,3.55-36.35,5.5-54.5   c0.75-6.96-2.37-11.88-9.24-12.79c-6.43-0.86-12.95-0.88-19.38,0.03c-5.76,0.81-10.01,5.26-10.76,10.85   c-0.51,3.78-0.74,7.6-1.12,11.4c-1.53,15.19-3.12,30.38-4.6,45.58c-1.26,12.89-2.54,25.78-3.53,38.69   c-0.51,6.6,3.64,10.99,10.32,11.45C424.78,281.02,427.45,280.87,430.11,280.87z M446.02,104.97c-12.8-0.06-22.97,9.87-23.04,22.5   c-0.07,12.69,9.96,22.97,22.54,23.14c12.31,0.16,22.91-10.2,23.2-22.66C469.01,115.63,458.53,105.03,446.02,104.97z"/>
</g>
<script xmlns=""/><link xmlns=""/></svg>